#!OML:ASF F:\VICON\USERDATA\INSTALL\rory3\rory3.ASF
:FULLY-SPECIFIED
:DEGREES
73
root 0.8296341786035363 19.26177359030236 8.484418903622254 9.577318383116026 8.115666575013949 -2.3343127601455875
lfemur -14.799663996044298 4.851203975608689 -16.2868295379159
ltibia 28.074428745265458
lfoot -7.019851203990836 2.6142788763102
ltoes -7.7888942326773325
rfemur -11.815016168501069 -3.5977002033382557 20.798771517460988
rtibia 22.843421687369357
rfoot -11.537897927034107 -3.1364665777553906
rtoes 10.901648421844083
lowerback 0.9630594264433943 -0.4375818713851837 1.1671552700100678
upperback 0.4218645961544877 -0.48565703774765734 2.9942335074390978
thorax -0.76899645843497 -0.2592595556264231 1.7576266104397926
lowerneck -10.341614981141646 -5.196849658487381 -2.9274086110934334
upperneck 16.314625403521955 -7.2052404239876555 3.8974217396521786
head 7.0891745043928225 -3.380349334761506 1.011002073130559
lclavicle 1.8693624878241114e-16 -2.3534468547163195e-15
lhumerus -36.11934578278424 4.5761501716278605 78.21578160214636
lradius 15.099130232167568
lwrist 3.7719375732658325
lhand -26.247347003741353 -8.564940322422451
lfingers 7.12502
lthumb 0.644246798006487 20.353457001824875
rclavicle 1.864543848495622e-16 -2.354431034001848e-15
rhumerus -28.168799594670666 -15.860131080442352 -72.86931138799623
rradius 26.786672419059105
rwrist 37.23980120504196
rhand -24.421386095501113 -27.41071421330714
rfingers 7.12502
rthumb 2.9328580980554344 -56.6788342154088
74
root 0.7953223454577228 19.300939253506918 8.798965731495649 10.195520882579785 8.147719589636393 -2.2263674451319337
lfemur -14.632291062012044 5.512515909438197 -16.616432044541853
ltibia 26.179626964239475
lfoot -6.928932152338273 2.3627654425821074
ltoes -7.540187175818428
rfemur -12.691095057385851 -3.740871473755275 20.853598969380368
rtibia 22.316017641597234
rfoot -11.756297377178617 -2.918069461859806
rtoes 11.829203389219359
lowerback 0.964458535458246 -0.21605163435301467 1.1034993018918264
upperback 0.29368296996746557 -0.1494876642483402 2.7817878515624637
thorax -1.0228855226107376 -0.07852366178221754 1.6183949670005249
lowerneck -10.210921082819034 -5.332902224412101 -2.858038672558863
upperneck 16.749763869528856 -7.3885538496233725 3.957027309686581
head 7.151938247805635 -3.495592973645969 1.0524791804085227
lclavicle 1.8723569191277768e-16 -2.3530220312192864e-15
lhumerus -35.32106508295347 5.434132042826175 78.73160095597625
lradius 14.339859731355155
lwrist 1.6672712379878454
lhand -25.600576268725046 -8.16289082021046
lfingers 7.12502
lthumb 1.1109697251359243 20.945963309665245
rclavicle 1.872364234188543e-16 -2.353190804198145e-15
rhumerus -28.708665023259826 -16.876074554398716 -72.08293394462686
rradius 25.68969158849628
rwrist 38.54496802083726
rhand -24.335111904816554 -27.579353747564575
rfingers 7.12502
rthumb 3.215116109342652 -56.86149659659575
75
root 0.7648282479627433 19.33313989765566 9.209750342374932 10.994150818924659 8.023323039863044 -1.9824131020403775
lfemur -14.687679338761141 6.082102782380751 -16.963631940897233
ltibia 24.639556801171587
lfoot -7.08703036473081 1.9786204703657413
ltoes -7.0539396240542835
rfemur -13.241665117927491 -3.6454589221786153 20.80348866705418
rtibia 21.341169410209968
rfoot -11.549462046115849 -2.4007204386828636
rtoes 12.784314927318626
lowerback 0.4389190054170229 -0.0904066502000258 1.0320294060963335
upperback 0.15181313030240573 0.04247029800226354 2.539357015509799
thorax -1.269029194494831 0.028751150172711182 1.466539259492465
lowerneck -10.150753439395578 -5.252996337284804 -2.838319054933146
upperneck 17.118665877306192 -7.287542530529316 3.9413988052292743
head 7.19248117484492 -3.4902620406816136 1.100625162779421
lclavicle 1.8786158640117377e-16 -2.352075511137981e-15
lhumerus -33.764320345706665 5.927269354788731 79.74615156193377
lradius 14.234506217097863
lwrist 1.386784274668532
lhand -24.823102658958508 -7.679399833978481
lfingers 7.12502
lthumb 1.6871136916571716 21.496144083090158
rclavicle 1.8799080746757358e-16 -2.351991299005737e-15
rhumerus -29.286273150367748 -17.519683499598326 -71.7705570327824
rradius 25.08309358817139
rwrist 39.161749611582316
rhand -24.249509253002593 -27.619277466211134
rfingers 7.12502
rthumb 3.3259832195188714 -57.0129844671516
76
root 0.7501367547711537 19.360150409953476 9.637628664820163 11.62913970972494 8.090366237514251 -1.7422218233566449
lfemur -14.30447386923799 6.40483721365646 -17.263369130114533
ltibia 22.882266224345408
lfoot -7.33276044134047 1.4222501267991463
ltoes -6.797177351668667
rfemur -13.27841628766765 -3.5937869064140098 20.70008271989807
rtibia 20.16207110414895
rfoot -11.290191927256675 -1.845638312542349
rtoes 13.642806967839737
lowerback -0.3735924392038683 -0.11628462422679375 1.0166062921267998
upperback 0.007916751416498169 0.0012308768086726207 2.3427061226381953
thorax -1.5849581790183551 0.021940003788079726 1.3124262725443416
lowerneck -10.112944646463614 -5.098714272522608 -2.8398503067637373
upperneck 17.595381408079014 -7.106475993798175 3.841139581392564
head 7.355009782903686 -3.464825358408575 1.1215313020994642
lclavicle 1.8836732625398698e-16 -2.351342419300026e-15
lhumerus -31.456299306378096 5.867193773686701 81.11170027121732
lradius 14.808689382784749
lwrist 2.2116934472785643
lhand -23.96381177255433 -7.102617280656452
lfingers 7.12502
lthumb 2.184490359090688 21.962209183904303
rclavicle 1.8818243431366531e-16 -2.3516824186530156e-15
rhumerus -29.853610546560372 -17.913441364614776 -71.58522828569257
rradius 24.632109564145846
rwrist 39.43847196380628
rhand -24.13568485490115 -27.534277610343015
rfingers 7.12502
rthumb 3.3814552187732994 -57.08041156164093
